ModelForces
version=1
nRows=4
nColumns=157
inDegrees=no

This file contains the forces exerted on a model during a simulation.

A force is a generalized force, meaning that it can be either a force (N) or a torque (Nm).

Units are S.I. units (second, meters, Newtons, ...)
Angles are in degrees.

endheader
time	glut_med1_r	glut_med2_r	glut_med3_r	glut_min1_r	glut_min2_r	glut_min3_r	semimem_r	semiten_r	bifemlh_r	bifemsh_r	sar_r	add_long_r	add_brev_r	add_mag1_r	add_mag2_r	add_mag3_r	tfl_r	pect_r	grac_r	glut_max1_r	glut_max2_r	glut_max3_r	iliacus_r	psoas_r	quad_fem_r	gem_r	peri_r	rect_fem_r	vas_med_r	vas_int_r	vas_lat_r	med_gas_r	lat_gas_r	soleus_r	tib_post_r	flex_dig_r	flex_hal_r	tib_ant_r	per_brev_r	per_long_r	per_tert_r	ext_dig_r	ext_hal_r	glut_med1_l	glut_med2_l	glut_med3_l	glut_min1_l	glut_min2_l	glut_min3_l	semimem_l	semiten_l	bifemlh_l	bifemsh_l	sar_l	add_long_l	add_brev_l	add_mag1_l	add_mag2_l	add_mag3_l	tfl_l	pect_l	grac_l	glut_max1_l	glut_max2_l	glut_max3_l	iliacus_l	psoas_l	quad_fem_l	gem_l	peri_l	rect_fem_l	vas_med_l	vas_int_l	vas_lat_l	med_gas_l	lat_gas_l	soleus_l	tib_post_l	flex_dig_l	flex_hal_l	tib_ant_l	per_brev_l	per_long_l	per_tert_l	ext_dig_l	ext_hal_l	ercspn_r	ercspn_l	intobl_r	intobl_l	extobl_r	extobl_l	femur_lat_meniscii_r.femur_lat_r.force.X	femur_lat_meniscii_r.femur_lat_r.force.Y	femur_lat_meniscii_r.femur_lat_r.force.Z	femur_lat_meniscii_r.femur_lat_r.torque.X	femur_lat_meniscii_r.femur_lat_r.torque.Y	femur_lat_meniscii_r.femur_lat_r.torque.Z	femur_lat_meniscii_r.meniscus_lat_r.force.X	femur_lat_meniscii_r.meniscus_lat_r.force.Y	femur_lat_meniscii_r.meniscus_lat_r.force.Z	femur_lat_meniscii_r.meniscus_lat_r.torque.X	femur_lat_meniscii_r.meniscus_lat_r.torque.Y	femur_lat_meniscii_r.meniscus_lat_r.torque.Z	femur_med_meniscii_r.femur_med_r.force.X	femur_med_meniscii_r.femur_med_r.force.Y	femur_med_meniscii_r.femur_med_r.force.Z	femur_med_meniscii_r.femur_med_r.torque.X	femur_med_meniscii_r.femur_med_r.torque.Y	femur_med_meniscii_r.femur_med_r.torque.Z	femur_med_meniscii_r.meniscus_med_r.force.X	femur_med_meniscii_r.meniscus_med_r.force.Y	femur_med_meniscii_r.meniscus_med_r.force.Z	femur_med_meniscii_r.meniscus_med_r.torque.X	femur_med_meniscii_r.meniscus_med_r.torque.Y	femur_med_meniscii_r.meniscus_med_r.torque.Z	femur_med_tibia_r.tibia_upper_r.force.X	femur_med_tibia_r.tibia_upper_r.force.Y	femur_med_tibia_r.tibia_upper_r.force.Z	femur_med_tibia_r.tibia_upper_r.torque.X	femur_med_tibia_r.tibia_upper_r.torque.Y	femur_med_tibia_r.tibia_upper_r.torque.Z	femur_med_tibia_r.femur_med_r.force.X	femur_med_tibia_r.femur_med_r.force.Y	femur_med_tibia_r.femur_med_r.force.Z	femur_med_tibia_r.femur_med_r.torque.X	femur_med_tibia_r.femur_med_r.torque.Y	femur_med_tibia_r.femur_med_r.torque.Z	femur_lat_tibia_r.tibia_upper_r.force.X	femur_lat_tibia_r.tibia_upper_r.force.Y	femur_lat_tibia_r.tibia_upper_r.force.Z	femur_lat_tibia_r.tibia_upper_r.torque.X	femur_lat_tibia_r.tibia_upper_r.torque.Y	femur_lat_tibia_r.tibia_upper_r.torque.Z	femur_lat_tibia_r.femur_lat_r.force.X	femur_lat_tibia_r.femur_lat_r.force.Y	femur_lat_tibia_r.femur_lat_r.force.Z	femur_lat_tibia_r.femur_lat_r.torque.X	femur_lat_tibia_r.femur_lat_r.torque.Y	femur_lat_tibia_r.femur_lat_r.torque.Z	aACL_R	pACL_R	aPCL_R	pPCL_R	aMCL_R	mMCL_R	pMCL_R	aLCL_R	mLCL_R	pLCL_R	ground_prescribedForce_fx	ground_prescribedForce_fy	ground_prescribedForce_fz	ground_prescribedForce_px	ground_prescribedForce_py	ground_prescribedForce_pz
      0.24360016	      8.93504665	      6.61731138	      7.09699294	      3.08509502	      3.64102250	      3.77808625	     10.64393548	      4.83044892	      9.95906492	      8.72405449	      1.76523755	      6.56801339	      4.79822988	      3.40554522	      2.87339480	      4.74587268	      4.43079614	      2.60004631	      1.80205541	      4.27016448	      6.49217595	      4.85987313	     24.37798836	     14.92187588	      4.22166456	      3.13549709	      5.13366376	     13.26943574	      7.69347504	      8.02431567	     10.17879527	      4.25282867	      2.05752915	      8.52227561	      9.22519318	      2.98772093	      2.17361907	     15.42735869	      4.54855295	      8.70846269	      7.76117773	      6.34544175	      2.63013928	      8.93504665	      6.61731138	      7.09699294	      3.08509502	      3.64102250	      3.77808625	     10.73174781	      4.82605635	      9.34850675	      8.40078676	      1.76211270	      6.56801339	      4.79822988	      3.40554522	      2.87339480	      4.74587268	      4.56678017	      2.60004631	      1.81197060	      4.27016448	      6.49217595	      4.85987313	     24.37798836	     14.92187588	      4.22166456	      3.13549709	      5.13366376	     12.93910428	      7.72919166	      8.89287100	      9.55555651	     18.09679950	      8.40529628	     39.02289125	     45.56547080	      3.58622703	      3.69327100	     10.16960813	      5.34076092	     14.70177879	      2.30851018	      6.58811660	      2.07286274	     29.02436521	     29.02436521	     10.58439983	     10.58439983	     28.22871574	     28.22871574	     36.04811242	     83.20516961	     13.26535189	     -7.55927675	      0.87030252	     15.10350097	    -36.04811242	    -83.20516961	    -13.26535189	      2.79413096	     -1.02278360	     -1.19797270	     32.24250307	     89.47225520	     10.04306772	     -2.22135120	     -0.79346026	     14.09839264	    -32.24250307	    -89.47225520	    -10.04306772	     -1.27870553	      0.65790189	     -1.65405726	     -0.25498692	     -3.14964521	      0.97204481	     -0.06923809	     -0.00934230	     -0.04845375	      0.25498692	      3.14964521	     -0.97204481	      0.45598502	      0.00874653	      0.14797482	      0.00000000	      0.00000000	      0.00000000	      0.00000000	      0.00000000	      0.00000000	      0.00000000	      0.00000000	      0.00000000	      0.00000000	      0.00000000	      0.00000000	     29.64076567	     53.18304050	      0.00000000	      0.00000000	      0.00000000	      1.70265582	     12.45766179	      1.76684160	      0.00000000	      2.35000896	    110.00000000	      0.00000000	      0.00000000	      0.03000000	     -0.03000000	      0.00000000
      0.24679157	      8.87837910	      6.57857422	      7.05493143	      3.06779880	      3.62222568	      3.75417961	     10.54213153	      4.78980942	      9.85497701	      8.59624529	      1.73367791	      6.52911134	      4.77157696	      3.38573418	      2.85627861	      4.71486727	      4.40377415	      2.58537178	      1.78226398	      4.24514146	      6.45402551	      4.83081272	     24.30733972	     14.84174969	      4.19747655	      3.12396347	      5.09280965	     13.14121000	      7.59832504	      7.91749571	     10.04518769	      4.22184016	      2.03795120	      8.49412354	      9.02433456	      2.99513247	      2.09301626	     15.31935113	      4.59524425	      8.73862356	      8.62084954	      6.30602418	      2.65958318	      8.87837910	      6.57857422	      7.05493143	      3.06779880	      3.62222568	      3.75417961	     10.65177311	      4.79571992	      9.28105058	      8.35261509	      1.75227938	      6.52911134	      4.77157696	      3.38573418	      2.85627861	      4.71486727	      4.54756609	      2.58537178	      1.80168133	      4.24514146	      6.45402551	      4.83081272	     24.30733972	     14.84174969	      4.19747655	      3.12396347	      5.09280965	     12.84692772	      7.68277122	      8.83847110	      9.49730522	     17.94282792	      8.33369582	     38.71171851	     45.43689871	      3.55342819	      3.66279506	     10.09962340	      5.30040845	     14.61436663	      2.29612918	      6.53275502	      2.05579278	     28.86127205	     28.86127205	     10.51976144	     10.51976144	     28.17055639	     28.17055639	     34.72880617	     80.63269968	     12.96717263	     -7.37112833	      0.83775951	     14.54995382	    -34.72880617	    -80.63269968	    -12.96717263	      2.70991060	     -0.98459775	     -1.15316365	     31.24651776	     86.96816615	      9.82792891	     -2.18679647	     -0.76989395	     13.66711616	    -31.24651776	    -86.96816615	     -9.82792891	     -1.24101963	      0.63861036	     -1.60711747	     -0.25720635	     -3.18484879	      0.98380559	     -0.07005792	     -0.00946241	     -0.04896741	      0.25720635	      3.18484879	     -0.98380559	      0.46146165	      0.00886288	      0.14935526	      0.00000000	      0.00000000	      0.00000000	      0.00000000	      0.00000000	      0.00000000	      0.00000000	      0.00000000	      0.00000000	      0.00000000	      0.00000000	      0.00000000	     30.12244849	     53.74547123	      0.00000000	      0.00000000	      0.00000000	      2.85075412	     13.57977928	      3.26895039	      0.00000000	      3.86037332	    110.00000000	      0.00000000	      0.00000000	      0.03000000	     -0.03000000	      0.00000000
      0.24917367	      8.83760917	      6.55069862	      7.02466542	      3.05534958	      3.60869869	      3.73697950	     10.49805687	      4.77600402	      9.80707603	      8.61474142	      1.74820544	      6.50111878	      4.75239100	      3.37147808	      2.84396321	      4.69256077	      4.39087103	      2.57481015	      1.78503816	      4.22713593	      6.42657417	      4.80990334	     24.25651107	     14.78411496	      4.18006903	      3.11566798	      5.06335481	     13.08473568	      7.60507409	      7.91883720	     10.03636810	      4.24325706	      2.04484501	      8.52354706	      8.89653382	      2.99293567	      2.03053174	     15.22475714	      4.62414135	      8.76109027	      8.21135044	      6.31359861	      2.68097522	      8.83760917	      6.55069862	      7.02466542	      3.05534958	      3.60869869	      3.73697950	     10.59418215	      4.77389377	      9.23249075	      8.31794752	      1.74520140	      6.50111878	      4.75239100	      3.37147808	      2.84396321	      4.69256077	      4.53374280	      2.57481015	      1.79427606	      4.22713593	      6.42657417	      4.80990334	     24.25651107	     14.78411496	      4.18006903	      3.11566798	      5.06335481	     12.78057946	      7.64937438	      8.79933584	      9.45540103	     17.83162354	      8.28198447	     38.48738605	     45.34432105	      3.52978813	      3.64084534	     10.04926150	      5.27134525	     14.55134013	      2.28722261	      6.49282986	      2.04349219	     28.74388506	     28.74388506	     10.47325363	     10.47325363	     28.12871454	     28.12871454	     35.68519611	     82.65240108	     13.30977487	     -7.56318426	      0.86079992	     14.95074612	    -35.68519611	    -82.65240108	    -13.30977487	      2.77805654	     -1.01154343	     -1.18510877	     32.18325724	     89.29877934	     10.07059265	     -2.23620176	     -0.79242870	     14.07260673	    -32.18325724	    -89.29877934	    -10.07059265	     -1.27582589	      0.65734922	     -1.65120051	     -0.23361942	     -2.88463313	      0.88873518	     -0.06338721	     -0.00854703	     -0.04442603	      0.23361942	      2.88463313	     -0.88873518	      0.41699188	      0.00799984	      0.13560108	      0.00000000	      0.00000000	      0.00000000	      0.00000000	      0.00000000	      0.00000000	      0.00000000	      0.00000000	      0.00000000	      0.00000000	      0.00000000	      0.00000000	     29.83432798	     53.54085958	      0.00000000	      0.00000000	      0.00000000	      1.81681303	     12.57122740	      1.77519810	      0.00000000	      2.38077361	    110.00000000	      0.00000000	      0.00000000	      0.03000000	     -0.03000000	      0.00000000
      0.25155577	      8.79809910	      6.52367965	      6.99533097	      3.04328102	      3.59558690	      3.72031066	     10.43405706	      4.75139561	      9.74258864	      8.55295891	      1.73026280	      6.47398782	      4.73379204	      3.35766016	      2.83202751	      4.67094409	      4.37353548	      2.56457176	      1.77384916	      4.20968474	      6.39996806	      4.78963873	     24.20725298	     14.72827142	      4.16319518	      3.10763081	      5.03475919	     13.00476272	      7.55833322	      7.86490421	      9.96829013	      4.23935415	      2.04115284	      8.53442470	      8.78467430	      2.98358316	      1.96567107	     15.14480980	      4.64423734	      8.77805055	      8.63105408	      6.36000381	      2.70337825	      8.79809910	      6.52367965	      6.99533097	      3.04328102	      3.59558690	      3.72031066	     10.53832825	      4.75274176	      9.18540891	      8.28434308	      1.73833979	      6.47398782	      4.73379204	      3.35766016	      2.83202751	      4.67094409	      4.52034706	      2.56457176	      1.78709756	      4.20968474	      6.39996806	      4.78963873	     24.20725298	     14.72827142	      4.16319518	      3.10763081	      5.03475919	     12.71625639	      7.61701003	      8.76141239	      9.41479578	     17.72350020	      8.23170691	     38.26961037	     45.25454153	      3.50683884	      3.61955084	     10.00044722	      5.24315460	     14.49014737	      2.27859209	      6.45406366	      2.03155689	     28.63008809	     28.63008809	     10.42818034	     10.42818034	     28.08816659	     28.08816659	     35.21929001	     81.54922659	     13.19178519	     -7.48674749	      0.84922376	     14.75530419	    -35.21929001	    -81.54922659	    -13.19178519	      2.74225598	     -0.99790396	     -1.16939641	     31.91425086	     88.59550140	     10.02687982	     -2.23335990	     -0.78618772	     13.95591293	    -31.91425086	    -88.59550140	    -10.02687982	     -1.26500149	      0.65232687	     -1.63831721	     -0.22853339	     -2.82205422	      0.86912846	     -0.06201142	     -0.00835998	     -0.04347260	      0.22853339	      2.82205422	     -0.86912846	      0.40781187	      0.00782474	      0.13266135	      0.00000000	      0.00000000	      0.00000000	      0.00000000	      0.00000000	      0.00000000	      0.00000000	      0.00000000	      0.00000000	      0.00000000	      0.00000000	      0.00000000	     30.02216898	     53.79316438	      0.00000000	      0.00000000	      0.00000000	      2.15628929	     12.90466234	      2.20763443	      0.00000000	      2.82235771	    110.00000000	      0.00000000	      0.00000000	      0.03000000	     -0.03000000	      0.00000000
